<svg class="ldi-pnqmfh" width="200px"  height="200px"  xmlns="http://www.w3.org/2000/svg" xmlns:xlink="http://www.w3.org/1999/xlink" viewBox="0 0 100 100" preserveAspectRatio="xMidYMid" style="background: none;"><!--?xml version="1.0" encoding="utf-8"?--><!--Generator: Adobe Illustrator 21.0.0, SVG Export Plug-In . SVG Version: 6.00 Build 0)--><svg version="1.1" id="圖層_1" xmlns="http://www.w3.org/2000/svg" xmlns:xlink="http://www.w3.org/1999/xlink" x="0px" y="0px" viewBox="0 0 100 100" style="transform-origin: 50px 50px 0px;" xml:space="preserve"><g style="transform-origin: 50px 50px 0px;"><g style="transform-origin: 50px 50px 0px; transform: scale(0.6);"><g style="transform-origin: 50px 50px 0px;"><g><style type="text/css" class="ld ld-spin" style="transform-origin: 50px 50px 0px; animation-duration: 1s; animation-delay: -1s; animation-direction: normal;">.st0{fill-rule:evenodd;clip-rule:evenodd;fill:#FFDC6C;} .st1{fill:none;stroke:#F8B26A;stroke-width:2.6883;stroke-linecap:round;stroke-miterlimit:10;} .st2{fill:#353035;} .st3{fill:#FFDC6C;} .st4{fill-rule:evenodd;clip-rule:evenodd;fill:#E15B64;} .st5{fill:#F8B26A;} .st6{fill-rule:evenodd;clip-rule:evenodd;fill:#A0C8D7;} .st7{fill-rule:evenodd;clip-rule:evenodd;fill:#B5B5B5;} .st8{fill:#A0C8D7;} .st9{fill-rule:evenodd;clip-rule:evenodd;fill:#F8B26A;} .st10{fill-rule:evenodd;clip-rule:evenodd;fill:#E0E0E0;stroke:#000000;stroke-width:3.8366;stroke-linecap:round;stroke-miterlimit:10;} .st11{fill-rule:evenodd;clip-rule:evenodd;fill:#FFDC6C;stroke:#F47E60;stroke-width:4;stroke-miterlimit:10;} .st12{fill-rule:evenodd;clip-rule:evenodd;fill:#E0E0E0;stroke:#000000;stroke-width:5;stroke-linecap:round;stroke-miterlimit:10;} .st13{fill:#B5B5B5;} .st14{fill-rule:evenodd;clip-rule:evenodd;fill:#E0E0E0;} .st15{fill-rule:evenodd;clip-rule:evenodd;fill:#E0E0E0;stroke:#000000;stroke-width:6.8207;stroke-linecap:round;stroke-miterlimit:10;} .st16{fill:#E0E0E0;} .st17{fill:#E0E0E0;stroke:#FFFFFF;stroke-width:3;stroke-miterlimit:10;} .st18{fill:#77A4BD;} .st19{fill-rule:evenodd;clip-rule:evenodd;fill:#E0E0E0;stroke:#000000;stroke-width:4;stroke-linecap:round;stroke-miterlimit:10;} .st20{fill:#F8B26A;stroke:#000000;stroke-width:3;stroke-miterlimit:10;} .st21{fill:none;stroke:#F8B26A;stroke-width:4.5884;stroke-linecap:round;stroke-miterlimit:10;} .st22{fill:#333333;} .st23{fill:#666666;} .st24{fill:#F47E60;} .st25{fill:#E15B64;} .st26{fill:#C33737;} .st27{fill:none;stroke:#77A4BD;stroke-width:4;stroke-linecap:round;stroke-miterlimit:10;} .st28{fill:none;stroke:#A0C8D7;stroke-width:4;stroke-linecap:round;stroke-miterlimit:10;} .st29{fill:none;stroke:#77A4BD;stroke-width:3.5;stroke-linecap:round;stroke-miterlimit:10;} .st30{fill:none;stroke:#A0C8D7;stroke-width:3.5;stroke-linecap:round;stroke-miterlimit:10;} .st31{fill-rule:evenodd;clip-rule:evenodd;fill:#F5E6C8;} .st32{fill:#E6E6E6;} .st33{fill:none;} .st34{fill:#849B87;} .st35{fill:none;stroke:#C33737;stroke-width:3;stroke-linecap:round;stroke-miterlimit:10;} .st36{fill:#F5E6C8;} .st37{fill:none;stroke:#F8B26A;stroke-width:1.8792;stroke-linecap:round;stroke-miterlimit:10;} .st38{fill:#998675;} .st39{fill:#736357;} .st40{fill-rule:evenodd;clip-rule:evenodd;fill:#80AAF3;} .st41{fill:none;stroke:#A0C8D7;stroke-width:3;stroke-linecap:round;stroke-miterlimit:10;} .st42{fill:none;stroke:#77A4BD;stroke-width:3;stroke-linecap:round;stroke-miterlimit:10;} .st43{fill:none;stroke:#F5E169;stroke-width:4.588;stroke-linecap:round;stroke-miterlimit:10;} .st44{fill:none;stroke:#F8B26A;stroke-width:4.588;stroke-linecap:round;stroke-miterlimit:10;} .st45{fill:none;stroke:#F47E60;stroke-width:4.588;stroke-linecap:round;stroke-miterlimit:10;} .st46{fill:none;stroke:#E15B64;stroke-width:4.588;stroke-linecap:round;stroke-miterlimit:10;} .st47{fill:none;stroke:#E15B64;stroke-width:8;stroke-miterlimit:10;} .st48{fill:none;stroke:#F8B26A;stroke-width:8;stroke-miterlimit:10;} .st49{fill:none;stroke:#ABBD81;stroke-width:8;stroke-miterlimit:10;} .st50{fill:none;stroke:#E15B64;stroke-width:4;stroke-miterlimit:10;} .st51{fill:none;stroke:#F8B26A;stroke-width:4;stroke-miterlimit:10;} .st52{fill:none;stroke:#F5E6C8;stroke-width:4;stroke-miterlimit:10;} .st53{fill:none;stroke:#ABBD81;stroke-width:4;stroke-miterlimit:10;} .st54{fill:none;stroke:#A0C8D7;stroke-width:4;stroke-miterlimit:10;} .st55{fill:none;stroke:#B295E3;stroke-width:4;stroke-miterlimit:10;}</style><g class="ld ld-spin" style="transform-origin: 50px 50px 0px; animation-duration: 1s; animation-delay: -0.916667s; animation-direction: normal;"><path class="st5" d="M92.5,58.5c0-0.3,0-0.7,0-1c0-7.4-4.7-13.6-10.9-15.2c-1-0.3-1.8-1-2.1-2c0,0,0,0,0,0c-0.5-1.6,0.4-3.4,2-3.8 c3.3-0.9,6.6-1,9.6-0.3c-0.2-0.3-0.3-0.6-0.5-0.9c-3.7-6.4-10.8-9.4-17.1-7.7c-1,0.3-2.1,0.1-2.8-0.6c0,0,0,0,0,0 c-1.3-1.1-1.4-3.1-0.2-4.3c2.4-2.4,5.2-4.2,8.2-5.1c-0.3-0.2-0.6-0.4-0.9-0.6c-6.4-3.7-14.1-2.8-18.6,1.8c-0.7,0.7-1.8,1.1-2.8,0.9 c0,0,0,0,0,0c-1.7-0.3-2.7-2-2.3-3.6c0.9-3.3,2.4-6.2,4.5-8.5c-0.3,0-0.7,0-1,0c-7.4,0-13.6,4.7-15.2,10.9c-0.3,1-1,1.8-2,2.1 c0,0,0,0,0,0c-1.6,0.5-3.4-0.4-3.8-2c-0.9-3.3-1-6.6-0.3-9.6c-0.3,0.2-0.6,0.3-0.9,0.5c-6.4,3.7-9.4,10.8-7.7,17.1 c0.3,1,0.1,2.1-0.6,2.8c0,0,0,0,0,0c-1.1,1.3-3.1,1.4-4.3,0.2c-2.4-2.4-4.2-5.2-5.1-8.2c-0.2,0.3-0.4,0.6-0.6,0.9 c-3.7,6.4-2.8,14.1,1.8,18.6c0.7,0.7,1.1,1.8,0.9,2.8c0,0,0,0,0,0c-0.3,1.7-2,2.7-3.6,2.3c-3.3-0.9-6.2-2.4-8.5-4.5c0,0.3,0,0.7,0,1 c0,7.4,4.7,13.6,10.9,15.2c1,0.3,1.8,1,2.1,2c0,0,0,0,0,0c0.5,1.6-0.4,3.4-2,3.8c-3.3,0.9-6.6,1-9.6,0.3c0.2,0.3,0.3,0.6,0.5,0.9 c3.7,6.4,10.8,9.4,17.1,7.7c1-0.3,2.1-0.1,2.8,0.6c0,0,0,0,0,0c1.3,1.1,1.4,3.1,0.2,4.3c-2.4,2.4-5.2,4.2-8.2,5.1 c0.3,0.2,0.6,0.4,0.9,0.6c6.4,3.7,14.1,2.8,18.6-1.8c0.7-0.7,1.8-1.1,2.8-0.9c0,0,0,0,0,0c1.7,0.3,2.7,2,2.3,3.6 c-0.9,3.3-2.4,6.2-4.5,8.5c0.3,0,0.7,0,1,0c7.4,0,13.6-4.7,15.2-10.9c0.3-1,1-1.8,2-2.1c0,0,0,0,0,0c1.6-0.5,3.4,0.4,3.8,2 c0.9,3.3,1,6.6,0.3,9.6c0.3-0.2,0.6-0.3,0.9-0.5c6.4-3.7,9.4-10.8,7.7-17.1c-0.3-1-0.1-2.1,0.6-2.8c0,0,0,0,0,0 c1.1-1.3,3.1-1.4,4.3-0.2c2.4,2.4,4.2,5.2,5.1,8.2c0.2-0.3,0.4-0.6,0.6-0.9c3.7-6.4,2.8-14.1-1.8-18.6c-0.7-0.7-1.1-1.8-0.9-2.8 c0,0,0,0,0,0c0.3-1.7,2-2.7,3.6-2.3C87.3,54.8,90.2,56.4,92.5,58.5z M50,75c-13.8,0-25-11.2-25-25s11.2-25,25-25s25,11.2,25,25 S63.8,75,50,75z" fill="rgb(248, 178, 106)" style="fill: rgb(248, 178, 106);"></path></g><g class="ld ld-spin" style="transform-origin: 50px 50px 0px; animation-duration: 1s; animation-delay: -0.833333s; animation-direction: normal;"><circle class="st3" cx="50" cy="50" r="27" fill="rgb(255, 220, 108)" style="fill: rgb(255, 220, 108);"></circle></g><metadata xmlns:d="https://loading.io/stock/" class="ld ld-spin" style="transform-origin: 50px 50px 0px; animation-duration: 1s; animation-delay: -0.75s; animation-direction: normal;">
<d:name class="ld ld-spin" style="transform-origin: 50px 50px 0px; animation-duration: 1s; animation-delay: -0.666667s; animation-direction: normal;">sun</d:name>
<d:tags class="ld ld-spin" style="transform-origin: 50px 50px 0px; animation-duration: 1s; animation-delay: -0.583333s; animation-direction: normal;">burn,scorch,flame,hot,warm,light,bright,solar,drought,sun,weather</d:tags>
<d:license class="ld ld-spin" style="transform-origin: 50px 50px 0px; animation-duration: 1s; animation-delay: -0.5s; animation-direction: normal;">rf</d:license>
<d:slug class="ld ld-spin" style="transform-origin: 50px 50px 0px; animation-duration: 1s; animation-delay: -0.416667s; animation-direction: normal;">pnqmfh</d:slug>
</metadata></g></g></g></g><style type="text/css" class="ld ld-spin" style="transform-origin: 50px 50px 0px; animation-duration: 1s; animation-delay: -0.333333s; animation-direction: normal;">@keyframes ld-spin {
  0% {
    -webkit-transform: rotate(0);
    transform: rotate(0);
    animation-timing-function: cubic-bezier(0.55, 0.055, 0.675, 0.19);
  }
  50% {
    -webkit-transform: rotate(180deg);
    transform: rotate(180deg);
    animation-timing-function: cubic-bezier(0.215, 0.61, 0.355, 1);
  }
  100% {
    -webkit-transform: rotate(360deg);
    transform: rotate(360deg);
  }
}
@-webkit-keyframes ld-spin {
  0% {
    -webkit-transform: rotate(0);
    transform: rotate(0);
    animation-timing-function: cubic-bezier(0.55, 0.055, 0.675, 0.19);
  }
  50% {
    -webkit-transform: rotate(180deg);
    transform: rotate(180deg);
    animation-timing-function: cubic-bezier(0.215, 0.61, 0.355, 1);
  }
  100% {
    -webkit-transform: rotate(360deg);
    transform: rotate(360deg);
  }
}
.ld.ld-spin {
  -webkit-animation: ld-spin 1s infinite;
  animation: ld-spin 1s infinite;
}
</style></svg></svg>